<svg width="180" height="80" viewBox="0 0 180 80" fill="none" xmlns="http://www.w3.org/2000/svg">
<path d="M85.9927 32.177L80.7784 24.0169C80.57 23.6785 80.7784 23.2871 81.2221 23.2871H84.2457C84.4541 23.2871 84.5848 23.4171 84.6632 23.5217L87.9481 29.0488H88.0527L91.4153 23.5217C91.4676 23.4171 91.6237 23.2871 91.8328 23.2871H94.8564C95.3001 23.2871 95.5085 23.6785 95.3001 24.0169L90.0597 32.177L95.4823 40.8069C95.6907 41.1714 95.4823 41.5366 95.0394 41.5366H92.2235C92.0151 41.5366 91.8328 41.4066 91.7806 41.3021L88.0527 35.3319H87.9481L84.2979 41.3021C84.2195 41.4066 84.0634 41.5366 83.855 41.5366H81.0391C80.57 41.5366 80.3616 41.1459 80.57 40.8069" fill="white"/>
<path d="M102.495 29.2314C104.372 29.2314 105.833 30.0396 106.979 31.2653C107.241 31.526 107.11 31.8644 106.849 32.1257L105.754 33.3246C105.494 33.6114 105.207 33.4814 104.972 33.2468C104.399 32.6987 103.695 32.2034 102.574 32.2034C100.697 32.2034 99.3927 33.6637 99.3927 35.5145C99.3927 37.3916 100.671 38.8518 102.548 38.8518C103.877 38.8518 104.581 38.122 105.102 37.5222C105.285 37.3138 105.65 37.2616 105.859 37.4438L107.032 38.4343C107.319 38.6956 107.449 38.9818 107.241 39.2947C106.223 40.8856 104.607 41.8238 102.469 41.8238C98.9498 41.8238 96.1085 39.1386 96.1085 35.5145C96.1085 31.9689 98.9236 29.2314 102.495 29.2314Z" fill="white"/>
<path d="M117.069 34.0027C117.016 32.8293 116.078 31.9166 114.749 31.9166C113.288 31.9166 112.349 32.8032 112.193 34.0027H117.069ZM114.826 29.2314C117.955 29.2314 120.353 31.5521 120.353 34.8109C120.353 34.9932 120.327 35.4107 120.301 35.5929C120.275 35.9059 119.988 36.1404 119.728 36.1404H112.01C112.037 37.6268 113.262 38.9302 115.009 38.9302C116.208 38.9302 117.042 38.4865 117.59 38.0436C117.877 37.8091 118.19 37.7829 118.372 38.0436L119.388 39.3993C119.598 39.6338 119.624 39.9206 119.337 40.1813C118.294 41.0679 116.808 41.8238 114.852 41.8238C111.255 41.8238 108.752 38.9563 108.752 35.5145C108.752 32.1257 111.255 29.2314 114.826 29.2314Z" fill="white"/>
<path d="M122.83 23.8607C122.83 23.5739 123.116 23.2871 123.403 23.2871H125.515C125.802 23.2871 126.088 23.5739 126.088 23.8607V40.963C126.088 41.2759 125.802 41.5366 125.515 41.5366H123.403C123.116 41.5366 122.83 41.2759 122.83 40.963" fill="white"/>
<path d="M129.477 23.8607C129.477 23.5739 129.763 23.2871 130.05 23.2871H132.162C132.449 23.2871 132.735 23.5739 132.735 23.8607V40.963C132.735 41.2759 132.449 41.5366 132.162 41.5366H130.05C129.763 41.5366 129.477 41.2759 129.477 40.963" fill="white"/>
<path d="M143.685 34.0027C143.633 32.8293 142.694 31.9166 141.365 31.9166C139.905 31.9166 138.966 32.8032 138.81 34.0027H143.685ZM141.443 29.2314C144.571 29.2314 146.97 31.5521 146.97 34.8109C146.97 34.9932 146.944 35.4107 146.918 35.5929C146.892 35.9059 146.605 36.1404 146.344 36.1404H138.627C138.653 37.6268 139.878 38.9302 141.625 38.9302C142.825 38.9302 143.659 38.4865 144.207 38.0436C144.493 37.8091 144.806 37.7829 144.989 38.0436L146.005 39.3993C146.214 39.6338 146.24 39.9206 145.953 40.1813C144.91 41.0679 143.424 41.8238 141.468 41.8238C137.871 41.8238 135.368 38.9563 135.368 35.5145C135.368 32.1257 137.871 29.2314 141.443 29.2314Z" fill="white"/>
<path d="M149.419 30.0658C149.419 29.7267 149.706 29.4921 149.993 29.4921H150.984C151.27 29.4921 151.401 29.6228 151.479 29.8573L151.922 30.9785C152.365 30.4832 153.487 29.2314 155.807 29.2314C159.639 29.2314 160.63 31.8128 160.63 34.7325V40.9633C160.63 41.2763 160.343 41.537 160.056 41.537H157.945C157.632 41.537 157.371 41.2763 157.371 40.9633V34.7325C157.371 33.1684 156.745 32.2034 155.286 32.2034C153.721 32.2034 152.965 33.2468 152.678 34.0805V40.9633C152.678 41.407 152.496 41.537 151.922 41.537H149.993C149.706 41.537 149.419 41.2763 149.419 40.9633" fill="white"/>
<path d="M164.54 32.4121H163.367C163.054 32.4121 162.819 32.1253 162.819 31.8385V30.0653C162.819 29.7269 163.054 29.4917 163.367 29.4917H164.54V26.1552C164.54 25.8422 164.827 25.5815 165.114 25.5815H167.251C167.564 25.5815 167.799 25.8422 167.799 26.1552V29.4917H170.615C170.927 29.4917 171.188 29.7269 171.188 30.0653V31.8385C171.188 32.1253 170.927 32.4121 170.615 32.4121H167.799V37.8348C167.799 38.6429 168.19 38.8252 168.789 38.8252C169.311 38.8252 170.301 38.5384 170.615 38.4345C170.953 38.3039 171.24 38.46 171.292 38.7468L171.631 40.3377C171.71 40.65 171.579 40.8852 171.292 41.0413C170.875 41.2759 169.155 41.8234 167.903 41.8234C165.218 41.8234 164.54 40.0247 164.54 37.9386" fill="white"/>
<path d="M82.1342 46.3263C82.1342 46.0656 82.3688 45.8311 82.6294 45.8311H85.0539C85.3146 45.8311 85.5499 46.0656 85.5499 46.3263V63.5853C85.5499 63.846 85.3146 64.0806 85.0539 64.0806H82.6294C82.3688 64.0806 82.1342 63.846 82.1342 63.5853" fill="white"/>
<path d="M89.1732 52.6092C89.1732 52.2701 89.46 52.0356 89.7468 52.0356H90.7373C91.0241 52.0356 91.1548 52.1656 91.2325 52.4001L91.6761 53.5219C92.1191 53.026 93.2402 51.7749 95.5602 51.7749C99.3926 51.7749 100.384 54.3562 100.384 57.276V63.5068C100.384 63.8197 100.097 64.0804 99.8101 64.0804H97.6986C97.3856 64.0804 97.1249 63.8197 97.1249 63.5068V57.276C97.1249 55.7119 96.499 54.7469 95.0388 54.7469C93.4747 54.7469 92.7188 55.7896 92.432 56.6239V63.5068C92.432 63.9497 92.2498 64.0804 91.6761 64.0804H89.7468C89.46 64.0804 89.1732 63.8197 89.1732 63.5068" fill="white"/>
<path d="M103.224 63.2722C103.068 63.1677 102.938 62.8809 103.068 62.6202L103.85 61.0561C103.981 60.7693 104.268 60.6648 104.555 60.8477C105.101 61.1861 105.962 61.6298 107.214 61.6298C108.126 61.6298 108.543 61.2907 108.543 60.7693C108.543 60.2218 107.865 59.7266 106.275 59.1007C103.955 58.2141 102.912 57.1191 102.912 55.2944C102.912 53.4697 104.294 51.7749 107.24 51.7749C109.013 51.7749 110.16 52.244 110.812 52.6615C111.072 52.8699 111.228 53.1828 111.072 53.4958L110.394 54.8776C110.212 55.1644 109.899 55.216 109.638 55.1121C109.065 54.8508 108.23 54.5124 107.24 54.5124C106.432 54.5124 106.093 54.903 106.093 55.2944C106.093 55.8419 106.692 56.1287 107.813 56.5978C110.133 57.5366 111.802 58.3709 111.802 60.7693C111.802 62.6725 110.186 64.3672 107.161 64.3672C105.154 64.3672 103.903 63.7413 103.224 63.2722Z" fill="white"/>
<path d="M114.357 52.6094C114.357 52.2703 114.643 52.0357 114.93 52.0357H117.042C117.329 52.0357 117.615 52.2703 117.615 52.6094V63.5069C117.615 63.8199 117.329 64.0806 117.042 64.0806H114.93C114.643 64.0806 114.357 63.8199 114.357 63.5069V52.6094ZM113.887 47.8903C113.887 46.7431 114.773 45.8311 115.947 45.8311C117.12 45.8311 118.032 46.7431 118.032 47.8903C118.032 49.0376 117.12 49.9765 115.947 49.9765C114.773 49.9765 113.887 49.0376 113.887 47.8903Z" fill="white"/>
<path d="M129.086 56.4155C128.825 55.7373 127.991 54.7469 126.427 54.7469C124.549 54.7469 123.585 56.3894 123.585 58.0841C123.585 59.7789 124.601 61.3945 126.583 61.3945C128.095 61.3945 129.086 60.717 129.086 60.717V56.4155ZM132.345 64.2104C132.345 68.0951 129.633 70.0506 126.348 70.0506C124.367 70.0506 122.594 69.1378 122.021 68.6949C121.838 68.5388 121.76 68.2258 121.89 68.0167L122.672 66.322C122.777 66.0874 123.116 66.0097 123.376 66.1658C123.82 66.4265 124.993 67.0785 126.244 67.0785C128.095 67.0785 129.086 66.4526 129.086 64.2104V63.872C128.538 64.0804 127.391 64.3672 126.192 64.3672C122.594 64.3672 120.221 61.6036 120.221 58.0841C120.221 54.434 122.699 51.7749 125.983 51.7749C128.538 51.7749 129.92 53.5735 129.92 53.5735L130.233 52.6092C130.337 52.2701 130.52 52.0356 130.807 52.0356H131.771C132.084 52.0356 132.345 52.2963 132.345 52.6092" fill="white"/>
<path d="M135.681 46.4047C135.681 46.1179 135.968 45.8311 136.255 45.8311H138.366C138.679 45.8311 138.94 46.1179 138.94 46.4047V52.7916C139.539 52.2703 140.582 51.7751 142.016 51.7751C145.848 51.7751 146.892 54.4341 146.892 57.4584V63.5069C146.892 63.8199 146.604 64.0806 146.318 64.0806H144.206C143.894 64.0806 143.632 63.8199 143.632 63.5069V57.4323C143.632 55.7636 142.876 54.7471 141.443 54.7471C140.035 54.7471 139.253 55.6336 138.94 56.8586V63.5069C138.94 63.846 138.783 64.0806 138.314 64.0806H136.255C135.968 64.0806 135.681 63.8199 135.681 63.5069" fill="white"/>
<path d="M150.775 54.9551H149.602C149.289 54.9551 149.054 54.6683 149.054 54.3815V52.609C149.054 52.2699 149.289 52.0354 149.602 52.0354H150.775V48.6981C150.775 48.3852 151.062 48.1245 151.349 48.1245H153.486C153.799 48.1245 154.034 48.3852 154.034 48.6981V52.0354H156.85C157.163 52.0354 157.423 52.2699 157.423 52.609V54.3815C157.423 54.6683 157.163 54.9551 156.85 54.9551H154.034V60.3777C154.034 61.1859 154.425 61.3689 155.024 61.3689C155.546 61.3689 156.537 61.0821 156.85 60.9775C157.188 60.8475 157.475 61.0036 157.527 61.2905L157.866 62.8807C157.945 63.1936 157.814 63.4282 157.527 63.5843C157.11 63.8195 155.39 64.367 154.138 64.367C151.453 64.367 150.775 62.5677 150.775 60.4823" fill="white"/>
<path d="M159.769 63.2722C159.613 63.1677 159.483 62.8809 159.613 62.6202L160.395 61.0561C160.525 60.7693 160.812 60.6648 161.098 60.8477C161.646 61.1861 162.506 61.6298 163.758 61.6298C164.67 61.6298 165.088 61.2907 165.088 60.7693C165.088 60.2218 164.409 59.7266 162.819 59.1007C160.499 58.2141 159.456 57.1191 159.456 55.2944C159.456 53.4697 160.838 51.7749 163.783 51.7749C165.557 51.7749 166.704 52.244 167.356 52.6615C167.616 52.8699 167.773 53.1828 167.616 53.4958L166.938 54.8776C166.756 55.1644 166.443 55.216 166.183 55.1121C165.609 54.8508 164.775 54.5124 163.783 54.5124C162.976 54.5124 162.637 54.903 162.637 55.2944C162.637 55.8419 163.236 56.1287 164.358 56.5978C166.678 57.5366 168.346 58.3709 168.346 60.7693C168.346 62.6725 166.73 64.3672 163.706 64.3672C161.698 64.3672 160.447 63.7413 159.769 63.2722Z" fill="white"/>
<path d="M43.4358 73.5158L15.7345 59.1599C9.3819 55.8681 7.24214 47.2774 10.9797 40.0699L24.7777 13.4608C28.5146 6.25334 36.7703 3.04954 43.1228 6.34138L70.8242 20.6972C77.1767 23.9891 79.3158 32.5797 75.5783 39.7872L61.7809 66.3963C58.0434 73.6038 49.7883 76.8076 43.4358 73.5158Z" fill="#001E7C"/>
<mask id="mask0_1_257" style="mask-type:alpha" maskUnits="userSpaceOnUse" x="9" y="5" width="69" height="70">
<path d="M9 5H77.4943V74.9029H9V5Z" fill="black"/>
</mask>
<g mask="url(#mask0_1_257)">
<mask id="mask1_1_257" style="mask-type:alpha" maskUnits="userSpaceOnUse" x="9" y="5" width="69" height="70">
<path d="M24.7777 13.4605L10.9797 40.0703C7.24214 47.2771 9.3819 55.8678 15.7345 59.1596L43.4351 73.5155C49.7877 76.8073 58.0434 73.6035 61.7809 66.396L75.5783 39.7869C79.3158 32.5794 77.176 23.9887 70.8242 20.6969L43.1228 6.34103C41.426 5.46202 39.5937 5.0459 37.7476 5.0459C32.6833 5.04659 27.5166 8.17816 24.7777 13.4605Z" fill="black"/>
</mask>
<g mask="url(#mask1_1_257)">
<path d="M43.4356 73.5153L15.7343 59.1594C9.38172 55.8676 7.24196 47.2769 10.9795 40.0694L24.7775 13.4604C28.5144 6.25285 36.7701 3.04906 43.1227 6.34089L70.824 20.6967C77.1765 23.9886 79.3156 32.5792 75.5781 39.7867L61.7807 66.3958C58.0432 73.6033 49.7882 76.8071 43.4356 73.5153Z" fill="#001E7C"/>
<path d="M56.8973 25.8821C57.5858 24.3964 58.7488 23.5085 60.3555 23.2753C61.2249 23.1488 61.9801 23.4528 62.5194 24.4391C62.6308 25.5306 62.4533 26.5355 62.0111 27.4847C61.3838 28.8314 60.0907 29.5357 58.6608 29.3541C57.6284 29.2228 56.7707 28.3314 56.6779 27.2887C56.6352 26.8031 56.6889 26.3305 56.8973 25.8821ZM68.8857 48.6642C65.8133 50.6589 62.7374 52.648 59.656 54.6289C57.2659 56.1654 54.7492 57.464 52.1163 58.5301C51.3487 58.841 50.5667 59.1223 49.775 59.3644C49.3177 59.5047 48.8314 59.5763 48.3527 59.6162C46.2789 59.7874 44.7554 58.5411 44.2575 56.5637C44.0037 55.5574 43.8874 54.5223 43.9693 53.4775C44.0945 51.8894 44.2864 50.3081 44.7417 48.7784C45.9777 44.6289 47.9324 40.835 50.5021 37.3581C51.2442 36.3539 52.1081 35.455 53.1728 34.7761C53.8297 34.3572 54.5353 34.1234 55.3304 34.177C56.6441 34.2664 57.647 35.4722 57.3897 36.7604C57.2701 37.3629 57.0486 37.9579 56.7886 38.5164C56.4399 39.2668 56.0224 39.9869 55.6118 40.7077C53.7265 44.0119 51.9801 47.3884 50.4209 50.8583C49.8837 52.0537 49.4291 53.2884 48.9882 54.5236C48.8307 54.9652 48.8245 55.4611 48.7626 55.8449C48.9978 56.1978 49.2606 56.2906 49.5398 56.2356C50.4188 56.063 51.3082 55.9137 52.1645 55.6592C53.6233 55.2238 55.0306 54.6406 56.3787 53.9308C58.0301 53.0614 59.6712 52.1734 61.3109 51.2827C63.1934 50.2599 65.0629 49.2124 66.9516 48.202C67.16 48.0906 67.376 47.9936 67.594 47.9008C68.5466 47.2329 70.0343 46.3291 72.2456 45.0932C72.5317 44.9336 72.8027 44.783 73.0614 44.6406L75.578 39.7867C79.3156 32.5792 77.1758 23.9886 70.8239 20.6967L43.1226 6.34089C36.77 3.04906 28.5143 6.25285 24.7775 13.4604L10.9794 40.0694C7.65872 46.4736 8.98068 53.9665 13.7719 57.8671C14.0993 57.453 14.4281 57.041 14.7617 56.6325C17.7694 52.9506 20.8598 49.3355 23.9164 45.6929C24.4714 45.0319 25.034 44.3778 25.609 43.7017C25.6207 43.1824 25.6469 42.6831 25.6407 42.1837C25.6056 39.0866 25.5375 35.9887 25.5293 32.8915C25.5217 29.9993 25.9364 27.1456 26.4819 24.3132C26.7549 22.8957 27.1765 21.5118 27.8616 20.2338C28.1292 19.7345 28.4731 19.2434 28.8871 18.8624C30.0179 17.8238 31.7037 18.3128 32.1927 19.7661C32.4513 20.5344 32.5015 21.3268 32.4341 22.1164C32.2945 23.7657 32.1198 25.4137 31.9313 27.0589C31.6108 29.85 31.26 32.637 30.9437 35.4281C30.8873 35.9234 30.9354 36.4296 30.9354 37.0163C31.1411 36.986 31.3907 37.0273 31.4843 36.9241C32.3564 35.9653 33.2155 34.9948 34.0512 34.0051C38.4944 28.7454 43.4968 24.1041 49.2427 20.2923C50.3212 19.577 51.4505 18.9353 52.5792 18.2991C53.0779 18.0177 53.6261 17.8203 54.1646 17.6154C54.7162 17.4049 55.285 17.3616 55.8545 17.5714C56.574 17.96 56.8952 18.5336 56.6579 19.5055C55.5161 20.9045 54.2547 22.364 52.778 23.6041C52.5469 23.4541 52.3743 23.3413 52.1961 23.2258C51.7993 23.2045 51.54 23.4817 51.2813 23.71C49.6616 25.14 48.0163 26.5451 46.4509 28.0342C43.2657 31.0626 40.088 34.1 36.9826 37.2102C35.1014 39.0948 33.3613 41.1211 31.5634 43.0889C31.421 43.245 31.3254 43.4452 31.1796 43.6673C30.998 44.4934 31.1981 45.3511 31.2525 46.206C31.3625 47.9359 31.65 49.6395 32.1081 51.3116C32.2408 51.7972 32.4025 52.2759 32.582 52.7464C33.1357 54.1976 34.0326 55.3848 35.3119 56.2837C37.6174 57.9049 40.024 59.341 42.6487 60.3913C43.0483 60.5509 43.4466 60.7166 43.9445 60.9195C44.1234 61.2119 44.3393 61.5668 44.4961 61.8233C44.4446 62.5118 44.1502 62.8956 43.6632 63.2099C42.5703 63.6632 41.4279 63.4857 40.3253 63.1233C39.3713 62.8096 38.44 62.4052 37.5383 61.9602C35.4653 60.9367 33.5546 59.6457 31.7119 58.2536C30.3006 57.1882 29.2475 55.8208 28.537 54.2183C27.9545 52.9046 27.4895 51.5393 26.9785 50.1946C26.8553 49.8686 26.757 49.5336 26.6545 49.2241C26.4323 49.2351 26.2466 49.187 26.1751 49.2571C25.7122 49.707 25.2555 50.1664 24.8325 50.6534C22.192 53.6914 19.5543 56.7322 16.9166 59.7723L43.4356 73.5153C49.7874 76.8071 58.0431 73.6033 61.7807 66.3958L72.0283 46.6325L69.112 48.4799C69.0411 48.5459 68.9675 48.6106 68.8857 48.6642Z" fill="#001E7C"/>
</g>
</g>
<mask id="mask2_1_257" style="mask-type:alpha" maskUnits="userSpaceOnUse" x="13" y="17" width="44" height="47">
<path d="M13.7542 17.3257H56.8933V63.6342H13.7542V17.3257Z" fill="black"/>
</mask>
<g mask="url(#mask2_1_257)">
<mask id="mask3_1_257" style="mask-type:alpha" maskUnits="userSpaceOnUse" x="9" y="5" width="69" height="70">
<path d="M24.7777 13.461L10.9796 40.0708C7.24208 47.2776 9.38184 55.8683 15.7344 59.1601L43.435 73.5159C49.7876 76.8078 58.0433 73.604 61.7808 66.3965L75.5782 39.7874C79.3157 32.5799 77.176 23.9892 70.8241 20.6974L43.1228 6.34152C41.426 5.46251 39.5936 5.04639 37.7476 5.04639C32.6833 5.04707 27.5165 8.17865 24.7777 13.461Z" fill="black"/>
</mask>
<g mask="url(#mask3_1_257)">
<path d="M26.1753 49.2581C26.2469 49.1886 26.4326 49.2361 26.6547 49.2251C26.7572 49.5346 26.8556 49.8696 26.9787 50.1956C27.4897 51.5402 27.9547 52.9055 28.5373 54.2192C29.2478 55.8218 30.3008 57.1892 31.7122 58.2546C33.5548 59.6467 35.4655 60.9377 37.5385 61.9612C38.4403 62.4069 39.3715 62.8106 40.3255 63.1242C41.4281 63.4867 42.5705 63.6642 43.6634 63.2109C44.1504 62.8966 44.4448 62.5128 44.4964 61.825C44.3396 61.5677 44.1236 61.2128 43.9454 60.9205C43.4468 60.7176 43.0486 60.5518 42.6489 60.3923C40.0243 59.342 37.6176 57.9059 35.3121 56.2854C34.0328 55.3857 33.1359 54.1986 32.5822 52.7473C32.4027 52.2769 32.2411 51.7982 32.1083 51.3126C31.6503 49.6405 31.3628 47.9368 31.2527 46.207C31.1984 45.3521 30.9982 44.4944 31.1798 43.6683C31.3256 43.4462 31.4212 43.2467 31.5636 43.0899C33.3615 41.1221 35.1017 39.0958 36.9828 37.2112C40.0882 34.101 43.2666 31.0636 46.4511 28.0352C48.0166 26.5461 49.6618 25.1409 51.2816 23.711C51.5402 23.4826 51.7995 23.2054 52.1963 23.2268C52.3745 23.3423 52.5478 23.4551 52.7782 23.6051C54.2549 22.365 55.5171 20.9054 56.6581 19.5064C56.8954 18.5346 56.5742 17.9609 55.8548 17.5723C55.286 17.3626 54.7165 17.4059 54.1648 17.6164C53.627 17.8213 53.0781 18.0187 52.5795 18.3C51.4508 18.9362 50.3214 19.578 49.2429 20.2933C43.497 24.1051 38.4946 28.7464 34.0514 34.006C33.2157 34.9958 32.3566 35.9663 31.4845 36.9251C31.391 37.0283 31.1413 36.987 30.9356 37.0172C30.9356 36.4306 30.8875 35.9243 30.9439 35.4291C31.2603 32.638 31.6111 29.851 31.9316 27.0599C32.12 25.4147 32.2947 23.7667 32.4344 22.1173C32.5018 21.3277 32.4515 20.5354 32.1929 19.7671C31.7039 18.3138 30.0181 17.8248 28.8873 18.8633C28.4733 19.2444 28.1301 19.7355 27.8618 20.2348C27.1768 21.5128 26.7558 22.8966 26.4828 24.3142C25.9367 27.1466 25.5212 30.0003 25.5295 32.8925C25.5377 35.9904 25.6058 39.0875 25.6409 42.1847C25.6471 42.6841 25.621 43.1834 25.6093 43.7027C25.0343 44.3788 24.4716 45.0329 23.9166 45.6939C20.86 49.3365 17.7697 52.9516 14.7619 56.6334C14.4283 57.042 14.0996 57.4547 13.7722 57.868C14.3733 58.3578 15.026 58.7938 15.7345 59.1604L16.9168 59.7733C19.5545 56.7332 22.1923 53.6924 24.8334 50.6543C25.2557 50.1674 25.7124 49.7079 26.1753 49.2581Z" fill="white"/>
</g>
</g>
<mask id="mask4_1_257" style="mask-type:alpha" maskUnits="userSpaceOnUse" x="56" y="23" width="7" height="7">
<path d="M56.541 23.1362H62.7037V29.475H56.541V23.1362Z" fill="black"/>
</mask>
<g mask="url(#mask4_1_257)">
<mask id="mask5_1_257" style="mask-type:alpha" maskUnits="userSpaceOnUse" x="9" y="5" width="69" height="70">
<path d="M24.7776 13.4605L10.9795 40.0703C7.24202 47.2771 9.38178 55.8678 15.7343 59.1596L43.435 73.5155C49.7875 76.8073 58.0432 73.6035 61.7808 66.396L75.5781 39.7869C79.3157 32.5794 77.1759 23.9887 70.824 20.6969L43.1227 6.34103C41.4259 5.46202 39.5936 5.0459 37.7475 5.0459C32.6832 5.04659 27.5164 8.17816 24.7776 13.4605Z" fill="black"/>
</mask>
<g mask="url(#mask5_1_257)">
<path d="M58.661 29.354C60.091 29.5363 61.3841 28.8313 62.0107 27.4846C62.4536 26.5354 62.6311 25.5305 62.5196 24.439C61.9804 23.4526 61.2259 23.1486 60.3558 23.2752C58.7491 23.5084 57.586 24.3963 56.8968 25.882C56.6891 26.3304 56.6355 26.8029 56.6788 27.2885C56.7703 28.3312 57.6287 29.2226 58.661 29.354Z" fill="white"/>
</g>
</g>
<mask id="mask6_1_257" style="mask-type:alpha" maskUnits="userSpaceOnUse" x="43" y="34" width="31" height="26">
<path d="M43.8635 34.0532H73.0924V59.7606H43.8635V34.0532Z" fill="black"/>
</mask>
<g mask="url(#mask6_1_257)">
<mask id="mask7_1_257" style="mask-type:alpha" maskUnits="userSpaceOnUse" x="9" y="5" width="69" height="70">
<path d="M24.7777 13.461L10.9796 40.0708C7.24208 47.2776 9.38184 55.8683 15.7344 59.1601L43.435 73.5159C49.7876 76.8078 58.0433 73.604 61.7808 66.3965L75.5782 39.7874C79.3157 32.5799 77.176 23.9892 70.8241 20.6974L43.1228 6.34152C41.426 5.46251 39.5936 5.04639 37.7476 5.04639C32.6833 5.04707 27.5165 8.17865 24.7777 13.461Z" fill="black"/>
</mask>
<g mask="url(#mask7_1_257)">
<path d="M72.2456 45.0937C70.0336 46.3296 68.5466 47.2334 67.594 47.9013C67.376 47.9941 67.16 48.0911 66.9516 48.2025C65.0629 49.2129 63.1934 50.2604 61.3109 51.2832C59.6712 52.1739 58.0301 53.0619 56.3787 53.9313C55.0306 54.6411 53.6233 55.2243 52.1645 55.6597C51.3082 55.9142 50.4188 56.0635 49.5398 56.2361C49.2613 56.2911 48.9978 56.1983 48.7626 55.8454C48.8245 55.4616 48.8307 54.9657 48.9882 54.5241C49.4291 53.2888 49.8837 52.0542 50.4209 50.8588C51.9801 47.3889 53.7265 44.0124 55.6117 40.7082C56.0224 39.9874 56.4399 39.2673 56.7893 38.5169C57.0486 37.9584 57.27 37.3634 57.3897 36.7609C57.647 35.4727 56.6441 34.2669 55.3304 34.1775C54.5353 34.1239 53.8296 34.3577 53.1728 34.7766C52.1081 35.4555 51.2442 36.3544 50.5021 37.3586C47.9324 40.8355 45.9777 44.6294 44.7417 48.7789C44.2864 50.3086 44.0945 51.8899 43.9693 53.478C43.8874 54.5228 44.0037 55.5579 44.2575 56.5642C44.7554 58.5416 46.2789 59.7879 48.3527 59.6166C48.8314 59.5768 49.3177 59.5052 49.775 59.3649C50.5667 59.1228 51.3487 58.8415 52.1163 58.5306C54.7492 57.4645 57.2659 56.1659 59.656 54.6294C62.7374 52.6485 65.8133 50.6594 68.8857 48.6647C68.9675 48.6111 69.0418 48.5464 69.112 48.4804L72.0283 46.633L73.0613 44.6411C72.8034 44.7835 72.5317 44.9341 72.2456 45.0937Z" fill="white"/>
</g>
</g>
</svg>
